<?xml version="1.0" standalone="no"?>
<!DOCTYPE svg PUBLIC "-//W3C//DTD SVG 20010904//EN"
 "http://www.w3.org/TR/2001/REC-SVG-20010904/DTD/svg10.dtd">
<svg version="1.0" xmlns="http://www.w3.org/2000/svg"
 width="500.000000pt" height="500.000000pt" viewBox="0 0 500.000000 500.000000"
 preserveAspectRatio="xMidYMid meet">

<g transform="translate(0.000000,500.000000) scale(0.100000,-0.100000)"
fill="#000000" stroke="none">
<path d="M790 2912 c0 -9 171 -22 283 -22 55 0 74 11 41 24 -24 9 -324 7 -324
-2z"/>
<path d="M820 2818 c0 -73 15 -68 25 10 6 44 4 52 -9 52 -13 0 -16 -12 -16
-62z"/>
<path d="M890 2830 c0 -39 3 -50 16 -50 12 0 15 6 10 25 -4 14 -2 25 4 25 5 0
10 5 10 11 0 5 -5 7 -11 3 -8 -4 -9 0 -4 15 5 15 2 21 -9 21 -12 0 -16 -11
-16 -50z"/>
<path d="M1004 2830 c0 -35 3 -50 13 -50 9 0 13 15 13 50 0 33 -4 50 -12 50
-9 0 -13 -17 -14 -50z"/>
<path d="M1072 2823 c4 -81 28 -85 28 -4 0 48 -3 61 -15 61 -13 0 -15 -11 -13
-57z"/>
<path d="M950 2835 c0 -8 5 -15 10 -15 6 0 10 7 10 15 0 8 -4 15 -10 15 -5 0
-10 -7 -10 -15z"/>
<path d="M980 2834 c0 -8 5 -12 10 -9 6 3 10 10 10 16 0 5 -4 9 -10 9 -5 0
-10 -7 -10 -16z"/>
<path d="M950 2795 c0 -8 5 -15 10 -15 6 0 10 7 10 15 0 8 -4 15 -10 15 -5 0
-10 -7 -10 -15z"/>
<path d="M673 2754 c-33 -8 -111 -98 -139 -159 -49 -111 -40 -165 27 -165 l30
0 -41 -38 c-36 -35 -40 -44 -40 -86 0 -31 9 -66 26 -100 43 -89 88 -126 153
-126 24 0 29 -4 29 -27 l0 -27 -18 21 c-11 14 -21 18 -31 13 -16 -10 -16 -9
35 -44 45 -30 58 -33 49 -8 -4 9 7 2 24 -15 17 -18 36 -33 42 -33 6 0 9 23 8
60 -2 54 -4 60 -22 58 -16 -2 -20 -10 -19 -38 l2 -35 -14 30 c-17 39 -17 50 0
64 10 8 16 9 21 1 3 -5 20 -10 37 -10 34 0 33 -7 7 129 l-11 54 -69 -5 c-38
-3 -72 -7 -74 -10 -10 -9 8 -47 25 -51 18 -5 38 -63 25 -75 -29 -29 -103 151
-96 236 1 6 10 12 21 12 15 0 21 -9 26 -40 l6 -39 62 6 c33 3 64 9 68 12 14
12 -13 86 -40 108 -21 18 -40 23 -81 23 -54 0 -54 0 -36 20 12 13 21 17 25 10
9 -14 80 -2 85 14 1 6 7 39 12 74 l9 62 -62 0 c-67 0 -76 -7 -67 -52 3 -14 0
-35 -6 -47 -16 -29 -41 -27 -41 3 0 31 69 166 92 180 21 13 36 0 20 -16 -7 -7
-12 -18 -12 -25 0 -17 81 -18 98 -1 19 19 14 52 -9 66 -22 14 -101 23 -136 16z"/>
<path d="M1169 2731 c-46 -15 -69 -31 -69 -52 0 -44 28 -75 105 -115 51 -26
80 -47 86 -63 13 -31 5 -51 -20 -51 -15 0 -21 9 -26 39 -6 38 -7 38 -58 44
-28 4 -53 5 -55 2 -2 -2 -1 -20 2 -40 19 -100 173 -150 247 -79 36 34 38 80 7
135 -22 39 -39 49 -123 69 -46 12 -85 39 -85 61 0 17 28 9 42 -12 12 -19 17
-20 58 -9 l45 12 -38 34 c-38 35 -65 40 -118 25z"/>
<path d="M873 2663 c-28 -42 -79 -171 -71 -178 2 -1 31 -5 65 -7 57 -4 62 -2
65 16 2 15 10 21 28 21 20 0 26 -6 28 -27 3 -27 18 -35 96 -53 l29 -6 -7 42
c-8 53 -55 193 -71 216 -8 11 -31 18 -71 21 l-59 4 -32 -49z m106 -65 c1 -22
-4 -28 -19 -28 -23 0 -24 2 -9 55 10 34 13 37 20 20 4 -11 8 -32 8 -47z"/>
<path d="M850 2457 c0 -11 31 -154 56 -259 l26 -108 63 0 63 0 31 73 31 72 -2
-78 -3 -77 67 0 66 0 42 48 c41 47 112 182 124 234 6 26 5 27 -20 18 -14 -6
-44 -10 -68 -10 -42 0 -42 0 -59 -52 -9 -29 -27 -75 -39 -101 l-23 -49 0 108
0 108 -70 18 c-38 10 -72 15 -76 10 -3 -4 -14 -53 -24 -109 -10 -57 -20 -101
-21 -100 -2 2 -9 55 -15 120 -9 92 -15 118 -28 121 -30 8 -121 18 -121 13z"/>
<path d="M847 2058 c-4 -12 -3 -41 0 -65 4 -32 10 -43 24 -43 9 0 20 6 23 13
3 8 8 7 16 -5 9 -15 40 -26 40 -14 0 2 -9 34 -20 70 -19 61 -23 66 -49 66 -21
0 -30 -6 -34 -22z m52 -60 c1 -5 -3 -8 -9 -8 -5 0 -10 12 -9 28 0 24 1 25 9 7
5 -11 9 -23 9 -27z"/>
<path d="M930 2071 c0 -5 6 -11 14 -14 8 -3 16 -28 20 -61 4 -31 9 -56 11 -56
2 0 11 3 19 6 13 5 15 16 10 54 -5 38 -3 48 11 53 9 4 13 11 10 17 -8 12 -95
13 -95 1z"/>
<path d="M1047 2064 c-9 -9 -9 -66 -1 -88 8 -20 43 -20 72 0 27 19 28 34 2 34
-11 0 -20 -7 -20 -15 0 -8 -4 -15 -10 -15 -5 0 -10 15 -10 34 0 19 5 38 10 41
6 3 10 -1 10 -9 0 -10 9 -16 21 -16 14 0 19 5 17 18 -2 12 -14 18 -43 20 -23
2 -44 0 -48 -4z"/>
<path d="M1161 2033 c-6 -20 -9 -38 -7 -40 8 -8 36 11 36 24 0 9 6 13 14 10 7
-3 24 1 36 10 17 12 19 17 9 24 -9 6 -18 3 -26 -8 -12 -16 -13 -16 -13 0 0 10
-8 17 -20 17 -14 0 -22 -10 -29 -37z"/>
</g>
</svg>
